<?xml version="1.0" encoding="iso-8859-1"?>
<!-- Uploaded to: SVG Repo, www.svgrepo.com, Generator: SVG Repo Mixer Tools -->
<svg fill="#000000" height="800px" width="800px" version="1.1" id="Layer_1" xmlns="http://www.w3.org/2000/svg" xmlns:xlink="http://www.w3.org/1999/xlink" 
	 viewBox="0 0 512.001 512.001" xml:space="preserve">
<g>
	<g>
		<path d="M178.223,0.166c-24.536-2.109-46.137,16.072-48.246,40.608c-2.124,24.693,16.268,46.153,40.608,48.246
			c24.44,2.099,46.13-15.99,48.246-40.608C220.94,23.876,202.759,2.276,178.223,0.166z"/>
	</g>
</g>
<g>
	<g>
		<path d="M442.079,410.083c-8.593,4.14-17.96,6.499-27.228,7.012c-9.246,0.311-17.5-0.916-26.788-6.205
			c-0.884-4.729-2.855-9.237-5.831-13.135l-50.344-65.933c0,0,1.012-7.413,2.109-15.782c-10.832,1.735-24.646,2.234-29.517-7.61
			c-5.003-10.113,4.791-20.709,8.011-24.19c2.628-2.842,6.187-6.176,9.348-8.673l-0.208-0.125
			c-3.862-2.306-8.197-3.458-12.531-3.458c-4.46,0-8.918,1.22-12.854,3.654c-12.448-2.816-11.975-2.781-13.128-2.781
			c-1.557,0-3.09,0.489-4.373,1.419c-1.735,1.259-2.843,3.203-3.041,5.336l-0.885,9.49c-0.721,7.743,3.716,15.045,10.92,17.971
			c3.102,1.26,5.542,3.758,6.743,6.883s1.06,6.607-0.395,9.623c-4.479,9.282-10.641,22.586-14.945,34.004
			c-17.607-14.233-16.499-13.337-34.59-27.962c-4.321-3.493-10.655-2.822-14.149,1.499c-0.853,1.055-1.454,2.231-1.817,3.456
			l-21.9-48.46c-3.012-1.349-62.973-28.191-65.97-29.532c-16.409-7.346-23.748-24.119-23.1-34.071l5.368-82.426l13.986,83.687
			c1.117,6.681,5.503,12.347,11.672,15.11l73.669,32.98c9.766,4.374,21.042,0.323,25.987-8.762
			c5.663-10.402,1.237-23.319-9.478-28.117l-63.783-28.555l-12.666-75.785l27.345,61.107c10.924,4.89,44.395,19.874,57.028,25.53
			c18.582,8.32,27.616,29.287,21.52,48.238c9.793-11.167,22.111-7.022,28.109-5.665c1.402-0.565,2.837-1.038,4.293-1.437
			c-1.198-3.121-3.179-5.991-5.935-8.278l-66.165-54.901l-13.815-21.683l2.924-34.014l0.021-0.249
			c1.429-16.627-10.915-31.172-27.432-32.591l-53.52-4.601c-16.412-1.411-31.156,10.721-32.591,27.432
			c-0.389,4.523-8.364,97.289-11.753,136.711c-0.672,7.825-0.402,15.892,0.817,23.65c2.156,13.715,6.156,39.126,13.65,86.868
			L66.232,479.196c-4.726,12.528,1.601,26.514,14.129,31.239c12.529,4.724,26.514-1.602,31.239-14.129l40.894-108.425
			c1.482-3.926,1.917-8.17,1.266-12.315c-1.247-7.947-12.153-77.408-13.763-87.662l12.788,1.099l38.682,85.594l26.947,118.529
			c2.968,13.054,15.957,21.233,29.015,18.266c13.056-2.969,21.233-15.959,18.266-29.015l-27.49-120.911
			c-0.36-1.584-0.878-3.128-1.548-4.608l-4.364-9.657c48.66,39.336,77.031,60.155,94.534,73.284
			c2.357-5.676,5.895-11.14,10.591-15.966c2.081-2.138,5.503-2.186,7.642-0.104c2.139,2.082,2.186,5.504,0.104,7.642
			c-5.028,5.166-8.753,11.761-10.381,18.904c-2.372,10.412-3.752,28.006-0.389,39.773l-9.998,27.633
			c-1.891,5.225,0.813,10.994,6.038,12.883c5.226,1.892,10.993-0.814,12.883-6.038l10.869-30.04
			c9.669-7.053,20.341-16.737,27.107-27.174c3.427-5.286,6.209-12.571,6.696-18.076c10.354,2.223,18.861,1.881,28.704-0.282
			c9.997-2.389,20.29-6.856,29.127-13.324C449.386,413.711,446.054,408.169,442.079,410.083z"/>
	</g>
</g>
<g>
	<g>
		<path d="M343.39,289.177c-3.133-6.332-9.279-9.68-12.533-8.069c-3.255,1.611-20.792,16.676-17.659,23.007
			s25.747,1.532,29.002-0.079C345.455,302.426,346.523,295.508,343.39,289.177z"/>
	</g>
</g>
</svg>