<?xml version="1.0" encoding="iso-8859-1"?>
<!-- Uploaded to: SVG Repo, www.svgrepo.com, Generator: SVG Repo Mixer Tools -->
<svg fill="#000000" height="800px" width="800px" version="1.1" id="Layer_1" xmlns="http://www.w3.org/2000/svg" xmlns:xlink="http://www.w3.org/1999/xlink" 
	 viewBox="0 0 512.002 512.002" xml:space="preserve">
<g>
	<g>
		<path d="M322.659,303.1c-8.022-13.994-6.12-30.998,3.471-42.841L283.649,297.7c-8.018,7.066-8.79,19.296-1.723,27.314
			c3.825,4.341,9.161,6.557,14.526,6.557c4.545,0,9.11-1.592,12.788-4.834l18.733-16.51
			C325.954,308.085,324.155,305.71,322.659,303.1z"/>
	</g>
</g>
<g>
	<g>
		<path d="M509.356,449.836l-40.66-77.896l40.19-69.706c2.051-3.556,3.045-7.429,3.1-11.262l-26.273-145.967
			c-2.967-15.686-18.088-25.997-33.773-23.03c-16.83,3.228-37.342,7.386-53.886,10.779c-11.326,2.323-20.186,11.181-22.516,22.506
			L360.1,230.322l-24.528,21.617c1.202-0.746-3.862,2.175,53.171-30.521l0.079-0.238l20.2-60.72l-4.862,73.571
			c-6.561,3.761-53.069,30.423-58.179,33.352c-9.34,5.355-12.467,17.232-7.177,26.46c0.714,1.246,1.658,2.514,2.61,3.541
			c-11.791,16.459-27.56,33.771-44.393,46.912c-36.579,28.556-71.995,33.967-105.329,16.114c2.369-0.399,4.824-0.161,7.088,0.76
			c7.782,3.163,16.718,0.852,21.992-5.685l6.464-8.012c1.453-1.801,2.06-4.142,1.666-6.422c-0.395-2.281-1.752-4.28-3.727-5.489
			l-10.847-6.641c-2.391-9.563-9.912-16.997-19.503-19.276l-0.255-0.06c0.566,4.315,0.811,9.578,0.704,13.757
			c-0.131,5.12-0.531,20.701-12.023,24.761c-10.016,3.537-19.092-4.623-25.793-12.776c-0.905-1.101-1.849-2.315-2.786-3.574
			c-5.456,7.306-10.26,13.811-10.26,13.811L55.77,358.676c-9.972,1.476-31.537,10.18-38.484,17.562
			c-9.18,9.754-15.208,23.968-16.686,36.727c-1.671,12.171,0.116,28.304,5.81,42.213c0.706,1.727,2.563,2.761,4.455,2.366
			c1.976-0.412,3.549-2.298,3.006-4.902c-2.509-12.029-1.982-26.298,1.448-36.622c0.829-2.733,2.281-6.381,4.206-9.83
			c0.45,4.581,1.13,8.924,2.691,13.895c6.275,12.988,14.467,21.454,28.189,25.637c5.882,10.842,2.997,5.523,17.611,32.461
			c2.863,5.277,9.46,7.233,14.735,4.37c5.276-2.863,7.233-9.46,4.37-14.735c-3.644-6.716-4.775-8.801-13.982-25.771
			c5.336-10.301,3.454-30.224-0.635-36.339c-3.373-5.045-6.762-10.121-11.448-13.896c-2.51-2.023-2.906-5.698-0.884-8.208
			c2.081-2.582,5.816-2.81,8.208-0.884c12.154,9.79,18.926,23.209,19.666,36.124c21.653,2.763,43.764,5.446,56.695,6.898
			l28.452,52.441c2.863,5.277,9.46,7.233,14.735,4.37c5.276-2.863,7.233-9.46,4.37-14.735l-28.71-52.917
			c5.703-11.316,11.884-28.221,16.263-41.051c16.479,9.567,33.587,14.332,51.006,14.332c25.324,0,51.303-10.069,76.94-30.083
			c19.852-15.498,38.536-36.52,50.815-54.753c2.292-0.357,4.44-1.057,6.653-2.326c7.121-4.082,60.075-34.439,67.196-38.521
			c5.619-3.222,9.273-9.047,9.703-15.54l5.368-81.242l12.991,78.192c1.438,8.654-3.134,25.752-18.806,34.738
			c-10.929,6.265-45.975,26.356-56.888,32.612l-16.318,20.942c-4.181,5.365-5.804,12.292-4.441,18.956l23.311,114.104
			c2.573,12.591,14.863,20.708,27.45,18.136c12.588-2.572,20.708-14.861,18.137-27.449l-21.166-103.602l38.77-49.756l4.945-0.935
			l-33.506,58.111c-3.973,6.891-4.15,15.333-0.469,22.385l46.569,89.218c5.948,11.39,20.001,15.803,31.39,9.858
			C510.888,475.28,515.302,461.226,509.356,449.836z"/>
	</g>
</g>
<g>
	<g>
		<circle cx="408.507" cy="70.923" r="42.792"/>
	</g>
</g>
<g>
	<g>
		<path d="M183.415,307.082c-1.307-3.7-8.587-5.737-15.781-3.196c-7.195,2.542-11.579,8.7-10.272,12.399
			c1.308,3.698,15.198,24.451,22.391,21.91C186.948,335.653,184.721,310.78,183.415,307.082z"/>
	</g>
</g>
</svg>