<?xml version="1.0" encoding="iso-8859-1"?>
<!-- Uploaded to: SVG Repo, www.svgrepo.com, Generator: SVG Repo Mixer Tools -->
<svg fill="#000000" height="800px" width="800px" version="1.1" id="Layer_1" xmlns="http://www.w3.org/2000/svg" xmlns:xlink="http://www.w3.org/1999/xlink" 
	 viewBox="0 0 512 512" xml:space="preserve">
<g>
	<g>
		<path d="M511.879,356.838c-0.407-2.351-1.806-4.413-3.842-5.659l-11.183-6.846c-2.465-9.859-10.219-17.522-20.106-19.872
			l-0.263-0.062c0.583,4.448,0.836,9.874,0.726,14.182c-0.135,5.279-0.547,21.342-12.395,25.527
			c-11.563,4.084-22.174-7.044-29.463-16.857c-0.632,0.847-1.255,1.681-1.864,2.498L205.734,237.962
			c-1.516-4.884-4.859-9.207-9.712-11.834l-2.55-1.38c1.356,5.614,1.468,11.505,0.27,17.332
			c-1.756,8.537-6.215,16.008-12.405,21.568c1.654,0.424,3.333,0.632,5.002,0.632c6.153,0,12.133-2.813,16.04-7.852l215.983,106.01
			l-84.971,12.571c-5.404,0.799-10.478,2.866-14.856,5.953c-10.777-2.804-18.288-7.622-26.197-15.853
			c-7.415-8.062-12.916-17.513-16.199-26.508l-0.085-0.235c-0.659-1.807-2.531-2.944-4.495-2.612
			c-2.214,0.373-3.706,2.472-3.332,4.686c1.803,10.69,6.054,22.448,12.899,33.254c7.26,11.015,14.287,17.25,22.689,22.518
			c-7.169,8.801-9.704,18.469-10.552,28.899c-0.841,10.343,0.66,22.712,2.292,32.864l-13.692,30.282
			c-2.55,5.638-0.046,12.275,5.593,14.824c5.641,2.551,12.276,0.042,14.824-5.593l12.113-26.794
			c11.943-6.612,23.802-17.1,31.076-32.333c3.289-6.889,6.397-14.538,6.397-23.149c0-3.323,2.695-6.018,6.018-6.018
			c3.323,0,6.018,2.695,6.018,6.018c0,7.5-1.419,14.608-3.948,20.967c19.205,2.476,39.519,4.98,54.447,6.737l-20.501,45.34
			c-2.55,5.638-0.046,12.275,5.593,14.824c5.641,2.551,12.276,0.042,14.824-5.593c0,0,42.989-94.799,48.619-111.664
			c1.181-3.536,3.773-6.426,7.159-7.986c3.386-1.56,7.272-1.659,10.727-0.255c8.024,3.261,17.235,0.879,22.673-5.861l6.665-8.261
			C511.66,361.602,512.285,359.19,511.879,356.838z"/>
	</g>
</g>
<g>
	<g>
		<path d="M464.983,321.819c-1.347-3.814-8.852-5.914-16.269-3.296c-7.417,2.62-11.937,8.969-10.59,12.782
			c1.348,3.814,15.667,25.208,23.085,22.588C468.625,351.274,466.329,325.632,464.983,321.819z"/>
	</g>
</g>
<g>
	<g>
		<circle cx="47.428" cy="49.991" r="42.07"/>
	</g>
</g>
<g>
	<g>
		<path d="M158.864,214.181l-68.774-14.149l-28.894-71.589c8.517,11.468,31.645,42.609,40.105,54.001l22.635,4.657l-11.524-6.239
			l-27.085-62.866c-2.876-6.677-10.452-13.172-19.094-13.217l-47.327-0.243C8.509,104.482,0.033,112.885,0,123.284
			c-0.019,5.901,5.512,155.412,5.512,155.412l69.343,209.686c3.177,9.608,12.113,15.695,21.709,15.695
			c4.519,0,9.068-1.347,13.023-4.085c-2.901-5.609,2.203,8.336-73.684-221.14l19.048,0.098l69.378,209.794
			c4.163,11.918,17.2,18.215,29.13,14.047c11.924-4.165,18.213-17.207,14.047-29.13L97.822,262.945
			c-15.974-3.292-18.398-3.793-32.084-6.613c-18.548-3.816-28.843-19.457-30.113-28.728l-11.099-81.034l30.405,78.391
			c2.469,6.114,7.883,10.876,14.733,12.285l81.018,16.701c10.949,2.253,21.708-4.783,23.972-15.792
			C176.913,227.179,169.852,216.442,158.864,214.181z"/>
	</g>
</g>
</svg>